# xmcd CD database file
#
# Track frame offsets:
#	150
#	27916
#	36925
#	57478
#	87143
#	107320
#
# Disc length: 1728 seconds
#
# Revision: 0
# Processed by: cddbd v1.5.2PL0 Copyright (c) Steve Scherf et al.
# Submitted via: CDex 1.51
#
DISCID=4106be06
DTITLE=Matto Molto - Matto Molto EP
DYEAR=2007
DGENRE=Jazz
TTITLE0=Erlik
TTITLE1=Hello here I am how are you
TTITLE2=Gjellefant
TTITLE3=Kazuma (Live at BLX)
TTITLE4=9 days in July
TTITLE5=Running from the army in room 12
EXTD=YEAR: 2007
EXTT0=
EXTT1=
EXTT2=
EXTT3=
EXTT4=
EXTT5=
PLAYORDER=
